<?xml version="1.0" encoding="utf-8"?>
<!-- Generator: Adobe Illustrator 21.0.2, SVG Export Plug-In . SVG Version: 6.00 Build 0)  -->
<svg version="1.1" id="Layer_1" xmlns="http://www.w3.org/2000/svg" xmlns:xlink="http://www.w3.org/1999/xlink" x="0px" y="0px"
	 viewBox="0 0 600 600" style="enable-background:new 0 0 600 600;" xml:space="preserve">
<style type="text/css">
	.st0{fill:#6D6E71;}
	.st1{fill:#000001;}
	.st2{fill:#58595B;}
</style>
<g>
	<g>
		<g>
			<path class="st0" d="M293.7,186.1l13.9,19.2c4.5,6.4,8.3,13.8,10.1,22c0.1-0.3,0.2-0.6,0.3-0.9c1.3-4.4,2-9.1,2-13.8
				c0.2-4.7-0.2-9.6-1.1-14.5c-1.8-9.9-5.5-19.9-10.3-29.8l-2.3-4.8l-16.8,16.8C290.9,182.1,292.3,184.1,293.7,186.1z"/>
			<path class="st0" d="M362.3,107.5l-38,38c0.6,1,1.2,2,1.8,3l2.3,3.5l1.1,1.7l1.3,2c3.4,5.4,6.6,11.1,9.3,17.1
				c2.6,6.1,5,12.4,6.6,19.1c1.5,6.7,2.5,13.7,2.6,20.8c0,7.1-0.9,14.4-2.8,21.4c-3.8,14.1-11.9,26.5-21.6,35.9
				c-9.8,9.4-21.1,16.3-32.8,21.1c-7.3,3-14.8,5.3-22.4,6.7c-4.5,1.3-9.2,1.9-14.1,1.7c0,0,0,0,0,0l0,0v0c0,0,0,0,0,0
				c11-13.5,22.9-21.9,33.3-32c10.1-10.2,16.9-22.8,15.3-36.1c-0.7-6.6-3.1-13.3-6.7-19.7c-3.9-6.9-7.8-13.8-11.5-20.9
				c-0.8-1.5-1.6-3-2.3-4.6L106.4,363.4l36.3,36.3c-5.6-19.3-3.5-42.1-3.5-42.1c0-24.9,65.5-45.3,148.5-47.1l138.8-138.8
				L362.3,107.5z"/>
		</g>
		<path class="st0" d="M429.5,174.7L293.9,310.3c2,0,4,0,6.1,0c42.4,0,80.9,4.8,109.6,12.7l84.1-84.1L429.5,174.7z"/>
		<path class="st0" d="M460.9,357.6c0,0,2.1,22.7-3.5,42.1l98.5-98.5L496.8,242l-82.4,82.4C443.1,332.9,460.9,344.6,460.9,357.6z"/>
		<g>
			<path class="st0" d="M318.4,63.7c-6.9,9.7-9.8,21-10,31.6c-0.2,10.9,2.3,21.4,6.4,31.4c2,5,4.4,9.9,7.1,14.7
				c0,0.1,0.1,0.1,0.1,0.2l37.2-37.2L318.4,63.7z"/>
			<path class="st0" d="M276.8,168c-0.9-4.1-1.1-8.4-0.5-12.5c0.7-4.1,2.2-8,4.1-11.4c-2,7.8-1.7,15.6,1.4,22.4
				c1.4,3.5,3.3,6.8,5.3,10l17.3-17.3c-1.2-2.7-2.4-5.4-3.4-8.2c-2.3-6-4.1-12.3-5.4-18.6c-2.6-12.7-2.8-26.4,1-39
				c3.7-12.4,11.3-23.6,21.7-29.8L300,45.2L44.1,301.1l59.2,59.2L281.6,182C279.6,177.5,277.9,172.9,276.8,168z"/>
		</g>
	</g>
	<g>
		<path class="st1" d="M300.3,317.1c-82.8,0-149.9,19.7-149.9,44.1c0,24.3,67.1,44.1,149.9,44.1s149.9-19.7,149.9-44.1
			C450.3,336.8,383.1,317.1,300.3,317.1z M429.2,374.4c-21.7-11.8-71.2-20-128.9-20s-107.3,8.2-128.9,20
			c-7.5-4.1-11.7-8.6-11.7-13.3c0-18.4,62.9-33.3,140.6-33.3s140.6,14.9,140.6,33.3C440.9,365.9,436.7,370.4,429.2,374.4z"/>
		<path class="st1" d="M250.5,409c-47.2-4.3-84.8-16-95.6-29.2c-1-0.8-2-1.7-2.9-2.7c0.6,7.6,0.8,20.2,6.3,31.9H250.5z"/>
	</g>
	<g>
		<path class="st1" d="M112.3,498.2c-8.3,0-15.3-3.7-20.4-10l5.5-8.9c4.6,5,10,7.6,14.8,7.6c6.2,0,9.9-3.9,9.9-11v-37h-24v-10.5
			h35.7v47.9C133.9,490.3,125.7,498.2,112.3,498.2z"/>
		<path class="st1" d="M181.5,497.7v-6.4c-3.8,4.7-9.8,6.9-17.4,6.9c-11.4,0-18.5-7-18.5-16.3c0-9.6,7.2-15.7,19.9-15.8h15.9v-1.6
			c0-6.6-4.3-10.6-12.6-10.6c-5.1,0-10.3,1.8-15.5,5.3l-4.7-7.9c7.3-4.4,12.7-6.6,22.7-6.6c13.6,0,21.2,6.9,21.3,18.5l0.1,34.6
			H181.5z M181.4,479.2v-4.9h-14.3c-7.4,0-10.9,2-10.9,7c0,4.8,3.9,7.8,10.2,7.8C174.6,489.2,180.8,484.9,181.4,479.2z"/>
		<path class="st1" d="M209.9,445l14.7,41.5l14.5-41.5h11.4l-20.2,52.7h-11.8L198.1,445H209.9z"/>
		<path class="st1" d="M288.5,497.7v-6.4c-3.8,4.7-9.8,6.9-17.4,6.9c-11.4,0-18.5-7-18.5-16.3c0-9.6,7.2-15.7,19.9-15.8h15.9v-1.6
			c0-6.6-4.3-10.6-12.6-10.6c-5.1,0-10.3,1.8-15.5,5.3l-4.7-7.9c7.3-4.4,12.7-6.6,22.7-6.6c13.6,0,21.2,6.9,21.3,18.5l0.1,34.6
			H288.5z M288.4,479.2v-4.9h-14.3c-7.4,0-10.9,2-10.9,7c0,4.8,3.9,7.8,10.2,7.8C281.6,489.2,287.8,484.9,288.4,479.2z"/>
		<path class="st1" d="M326,498.2c-8.3,0-15.3-3.7-20.4-10l5.5-8.9c4.6,5,10,7.6,14.8,7.6c6.2,0,9.9-3.9,9.9-11v-37h-24v-10.5h35.8
			v47.9C347.6,490.3,339.4,498.2,326,498.2z"/>
		<path class="st1" d="M395.2,497.7v-6.4c-3.8,4.7-9.8,6.9-17.4,6.9c-11.4,0-18.5-7-18.5-16.3c0-9.6,7.2-15.7,19.9-15.8h15.9v-1.6
			c0-6.6-4.3-10.6-12.6-10.6c-5,0-10.3,1.8-15.5,5.3l-4.7-7.9c7.3-4.4,12.7-6.6,22.7-6.6c13.6,0,21.2,6.9,21.3,18.5l0.1,34.6H395.2z
			 M395.2,479.2v-4.9h-14.3c-7.4,0-10.9,2-10.9,7c0,4.8,3.9,7.8,10.2,7.8C388.3,489.2,394.6,484.9,395.2,479.2z"/>
		<path class="st1" d="M509.7,464.9v32.8h-11.4v-29.6c0-8-4.8-12.9-12.5-12.9c-9,0.3-14.5,7.2-14.5,16.4v26H460v-29.6
			c0-8-4.7-12.9-12.4-12.9c-9.1,0.3-14.7,7.2-14.7,16.4v26h-11.3V445H433v10.2c3.7-7.4,10.4-10.6,19.1-10.6
			c9.4,0,15.8,4.7,18.3,12.7c3.4-8.8,10.4-12.7,20-12.7C502.5,444.6,509.7,452.4,509.7,464.9z"/>
	</g>
	<g>
		<path class="st2" d="M111,511.7c4.6,0,9.1,1.1,12.7,3.1c0.5,0.3,0.8,0.6,0.8,1.2v7.9c0,0.6-0.3,0.9-0.9,0.9h-3.4
			c-0.6,0-0.9-0.2-0.9-0.9l0.2-4.3c-2.3-1.5-5.4-2.6-8.6-2.6c-8.9,0-11.7,7-11.7,15.6c0,9.1,3.2,16.9,12.7,16.9c3.3,0,6-0.7,7.6-1.9
			l-0.2-4.3c-0.1-0.7,0.2-0.9,0.9-0.9h3.5c0.6,0,0.9,0.2,0.9,0.9v7.7c0,0.6,0,0.9-0.6,1.2c-2.7,1.3-7.1,2.6-12.2,2.6
			c-13.8,0-19.8-8.6-19.8-21.2C91.9,517.2,102.3,511.7,111,511.7z"/>
		<path class="st2" d="M149.1,511.7c6.3,0,18,2.3,18,20.4c0,15.2-8.5,22.7-19.2,22.7c-11.1,0-17.7-7.1-17.7-21
			C130.2,516.6,141.3,511.7,149.1,511.7z M159.5,533.2c0-9.1-2.8-16.2-11.1-16.2c-8.2,0-10.9,6.9-10.9,14.6
			c0,7.4,1.3,17.4,11.1,17.4C156.6,549.1,159.5,542.4,159.5,533.2z"/>
		<path class="st2" d="M183.1,530.2h9.7l-0.2-3.1c-0.1-0.7,0.2-0.9,0.9-0.9h3.4c0.6,0,0.9,0.3,0.9,0.9v10.8c0,0.6-0.3,0.9-0.9,0.9
			h-3.4c-0.6,0-0.9-0.2-0.9-0.9l0.2-2.9h-9.6v14.2h6.3c0.6,0,0.9,0.3,0.9,0.9v3c0,0.7-0.3,0.9-0.9,0.9h-16.3c-0.6,0-0.9-0.3-0.9-0.9
			v-3c0-0.7,0.3-0.9,0.9-0.9h3.2v-31.6h-3.2c-0.6,0-0.9-0.3-0.9-0.9v-3.1c0-0.7,0.3-0.9,0.9-0.9h27.4c0.6,0,0.9,0.3,0.9,0.9v8.2
			c0,0.7-0.3,0.9-0.9,0.9H197c-0.6,0-0.9-0.2-0.9-0.9l0.2-4.2h-13.3V530.2z"/>
		<path class="st2" d="M216,530.2h9.7l-0.2-3.1c-0.1-0.7,0.2-0.9,0.9-0.9h3.4c0.6,0,0.9,0.3,0.9,0.9v10.8c0,0.6-0.3,0.9-0.9,0.9
			h-3.4c-0.6,0-0.9-0.2-0.9-0.9l0.2-2.9H216v14.2h6.3c0.6,0,0.9,0.3,0.9,0.9v3c0,0.7-0.3,0.9-0.9,0.9h-16.3c-0.6,0-0.9-0.3-0.9-0.9
			v-3c0-0.7,0.3-0.9,0.9-0.9h3.2v-31.6h-3.2c-0.6,0-0.9-0.3-0.9-0.9v-3.1c0-0.7,0.3-0.9,0.9-0.9h27.4c0.6,0,0.9,0.3,0.9,0.9v8.2
			c0,0.7-0.3,0.9-0.9,0.9h-3.4c-0.6,0-0.9-0.2-0.9-0.9l0.2-4.2H216V530.2z"/>
		<path class="st2" d="M248.9,530.5h9.1l-0.2-3.1c-0.1-0.7,0.2-0.9,0.9-0.9h3.4c0.6,0,0.9,0.3,0.9,0.9v10.8c0,0.6-0.3,0.9-0.9,0.9
			h-3.4c-0.6,0-0.9-0.2-0.9-0.9l0.2-2.9h-9v14h13.9l-0.2-4.3c-0.1-0.7,0.2-0.9,0.9-0.9h3.4c0.6,0,0.9,0.3,0.9,0.9v8.2
			c0,0.7-0.2,0.9-0.9,0.9h-28c-0.7,0-0.9-0.3-0.9-0.9v-3c0-0.7,0.3-0.9,0.9-0.9h3.2v-31.6h-3.2c-0.6,0-0.9-0.3-0.9-0.9v-3.1
			c0-0.7,0.3-0.9,0.9-0.9h26.8c0.7,0,0.9,0.3,0.9,0.9v8.2c0,0.7-0.3,0.9-0.9,0.9h-3.4c-0.6,0-0.9-0.2-0.9-0.9l0.2-4.2h-12.7V530.5z"
			/>
		<path class="st2" d="M282.6,530.5h9.1l-0.2-3.1c-0.1-0.7,0.2-0.9,0.9-0.9h3.4c0.6,0,0.9,0.3,0.9,0.9v10.8c0,0.6-0.3,0.9-0.9,0.9
			h-3.4c-0.6,0-0.9-0.2-0.9-0.9l0.2-2.9h-9v14h13.9l-0.2-4.3c-0.1-0.7,0.2-0.9,0.9-0.9h3.4c0.6,0,0.9,0.3,0.9,0.9v8.2
			c0,0.7-0.2,0.9-0.9,0.9h-28c-0.7,0-0.9-0.3-0.9-0.9v-3c0-0.7,0.3-0.9,0.9-0.9h3.2v-31.6h-3.2c-0.6,0-0.9-0.3-0.9-0.9v-3.1
			c0-0.7,0.3-0.9,0.9-0.9h26.8c0.7,0,0.9,0.3,0.9,0.9v8.2c0,0.7-0.3,0.9-0.9,0.9H296c-0.6,0-0.9-0.2-0.9-0.9l0.2-4.2h-12.7V530.5z"
			/>
		<path class="st2" d="M328.6,530.2h18.4v-12.5h-3.2c-0.6,0-0.9-0.3-0.9-0.9v-3.1c0-0.7,0.3-0.9,0.9-0.9h13.3c0.6,0,0.9,0.3,0.9,0.9
			v3.1c0,0.7-0.3,0.9-0.9,0.9h-3.2v31.6h3.2c0.6,0,0.9,0.3,0.9,0.9v3c0,0.7-0.3,0.9-0.9,0.9h-13.3c-0.6,0-0.9-0.3-0.9-0.9v-3
			c0-0.7,0.3-0.9,0.9-0.9h3.2v-13.8h-18.4v13.8h3.2c0.6,0,0.9,0.3,0.9,0.9v3c0,0.7-0.3,0.9-0.9,0.9h-13.3c-0.6,0-0.9-0.3-0.9-0.9v-3
			c0-0.7,0.3-0.9,0.9-0.9h3.2v-31.6h-3.2c-0.6,0-0.9-0.3-0.9-0.9v-3.1c0-0.7,0.3-0.9,0.9-0.9h13.3c0.6,0,0.9,0.3,0.9,0.9v3.1
			c0,0.7-0.3,0.9-0.9,0.9h-3.2V530.2z"/>
		<path class="st2" d="M382,511.7c6.3,0,18,2.3,18,20.4c0,15.2-8.5,22.7-19.2,22.7c-11.1,0-17.7-7.1-17.7-21
			C363.1,516.6,374.2,511.7,382,511.7z M392.4,533.2c0-9.1-2.8-16.2-11.1-16.2c-8.2,0-10.9,6.9-10.9,14.6c0,7.4,1.3,17.4,11.1,17.4
			C389.4,549.1,392.4,542.4,392.4,533.2z"/>
		<path class="st2" d="M415.1,536.8c0,7.1,0.9,12.5,9.4,12.5c7.7,0,10-4.9,10-12.4v-19.3h-3.2c-0.6,0-0.9-0.3-0.9-0.9v-3.1
			c0-0.7,0.3-0.9,0.9-0.9h12.3c0.6,0,0.9,0.3,0.9,0.9v3.1c0,0.7-0.3,0.9-0.9,0.9h-3.2v20.6c0,8.2-3.2,16.6-16,16.6
			c-12.6,0-16.1-5.8-16.1-15.9v-21.3H405c-0.6,0-0.9-0.3-0.9-0.9v-3.1c0-0.7,0.3-0.9,0.9-0.9h13.3c0.6,0,0.9,0.3,0.9,0.9v3.1
			c0,0.7-0.3,0.9-0.9,0.9h-3.2V536.8z"/>
		<path class="st2" d="M472.2,513c0.7,0.2,0.9,0.5,0.9,1.1v8.4c0,0.6-0.3,0.9-0.9,0.9h-3.4c-0.6,0-0.9-0.2-0.9-0.9l0.2-4.1
			c-1.2-0.7-3.3-1.5-5.5-1.5c-3.8,0-6.5,1.9-6.5,5.4c0,3.5,2.1,5.4,7.1,7.3c5.1,1.9,11.8,4.3,11.8,12.4c0,8-5.2,12.8-14.6,12.8
			c-4.3,0-8.3-1-10.2-1.6c-0.7-0.2-0.9-0.5-0.9-1.1v-9.7c0-0.7,0.3-0.9,0.9-0.9h3.4c0.6,0,0.9,0.2,0.9,0.9l-0.2,5.1
			c1,0.9,3.7,2,6.5,2c3.9,0,7.6-1.3,7.6-6.2c0-4.3-3.3-6.2-8-7.8c-5.4-1.8-10.8-4.4-10.8-11.6c0-6.9,4.9-12.3,13.8-12.3
			C467.1,511.7,470.6,512.5,472.2,513z"/>
		<path class="st2" d="M490.9,530.5h9.1l-0.2-3.1c-0.1-0.7,0.2-0.9,0.9-0.9h3.4c0.6,0,0.9,0.3,0.9,0.9v10.8c0,0.6-0.3,0.9-0.9,0.9
			h-3.4c-0.6,0-0.9-0.2-0.9-0.9l0.2-2.9h-9v14h13.9l-0.2-4.3c-0.1-0.7,0.2-0.9,0.9-0.9h3.4c0.6,0,0.9,0.3,0.9,0.9v8.2
			c0,0.7-0.2,0.9-0.9,0.9h-28c-0.7,0-0.9-0.3-0.9-0.9v-3c0-0.7,0.3-0.9,0.9-0.9h3.2v-31.6h-3.2c-0.6,0-0.9-0.3-0.9-0.9v-3.1
			c0-0.7,0.3-0.9,0.9-0.9h26.8c0.7,0,0.9,0.3,0.9,0.9v8.2c0,0.7-0.3,0.9-0.9,0.9h-3.4c-0.6,0-0.9-0.2-0.9-0.9l0.2-4.2h-12.7V530.5z"
			/>
	</g>
	<path class="st1" d="M266,294.3c4.9-5,9.9-9.4,14.8-13.7c3.8-3.3,7.5-6.5,11-10c12.5-12.6,18.2-26.3,16.7-39.7
		c-0.7-6.9-3.1-14.1-7.3-21.3c-3.2-5.6-7.4-13.1-11.5-20.8c-0.5-0.9-0.9-1.8-1.4-2.7c0.1,0.2,1.7,2.5,1.7,2.5l14,19.3
		c4.7,6.6,7.9,13.5,9.4,20.4l3.5,16.2l4.9-15.8l0.1-0.2c0.1-0.3,0.2-0.5,0.3-0.8c1.4-4.6,2.1-9.6,2.2-14.9c0.2-4.8-0.2-10-1.2-15.4
		c-1.8-9.6-5.3-20-10.6-30.9l-3.9-8.2c-0.4-0.9-0.7-1.8-1.1-2.6c-0.9-2-1.7-4-2.4-6c-2.1-5.5-3.9-11.6-5.3-18.1
		c-2.7-13.2-2.4-25.9,0.9-36.9c1.2-3.9,2.7-7.6,4.5-10.9c-0.7,3.7-1.2,7.6-1.3,11.6c-0.2,10.6,2.1,21.8,6.7,33.2
		c2.2,5.5,4.6,10.4,7.3,15.1c0.9,1.7,1.9,3.3,2.8,4.9c0.5,0.8,0.9,1.5,1.4,2.3l0.1,0.2l2.3,3.5l1.1,1.7l1.2,2
		c3.4,5.4,6.5,10.9,9.1,16.6c3,6.9,5,12.8,6.4,18.3c1.6,6.7,2.4,13.4,2.5,19.9c0,7-0.9,13.8-2.7,20.2c-3.3,12.3-10.6,24.4-20.4,33.9
		c-8.9,8.5-19.4,15.3-31.4,20.2c-7.1,2.9-14.4,5.1-21.6,6.4l-0.2,0l-0.2,0.1C267.6,293.9,266.8,294.1,266,294.3z"/>
</g>
</svg>
